/* XPM */
static const char *b3dicon[]={
"32 32 4 1",
"# c None",
". c #000000",
"a c #00c0c0",
"b c #800080",
".......................#########",
"........................########",
"....aaaaaaaaaaaaaaaaaa....######",
"......aaaaaaaaaaaaaaaaaa...#####",
"..aa...aaaaaaaaaaaaaaaaaa....###",
"..aaa....aaaaaaaaaaaaaaaaaa....#",
"..aaaaa...aaaaaaaaaaaaaaaaaaa...",
"..aaaaaa........................",
"..aaaaaa........................",
"..aaaaaa..aaaaaaaaaaaaaaaaaaaaa.",
"..aaaaaa..aaaaaaaaaaaaaaaaaaaaa.",
"..aaaaaa..aaaaaaaaaaaaaaaaaaaaa.",
"..aaaaaa..aaabbbbaaaabbbaaaaaaa.",
"..aaaaaa..aabbbbbbaaabbbbbaaaaa.",
"..aaaaaa..aaaaaaabbaabaaabbaaaa.",
"..aaaaaa..aaaaaaaabaabaaaabbaaa.",
"..aaaaaa..aaaaaaaabaabaaaaabbaa.",
"..aaaaaa..aaaaaaabbaabaaaaabbaa.",
"..aaaaaa..aaaabbbbaaabaaaaaabaa.",
"..aaaaaa..aaaabbbbaaabaaaaaabaa.",
"..aaaaaa..aaaaaaabbaabaaaaabbaa.",
"..aaaaaa..aaaaaaaabaabaaaaabbaa.",
"..aaaaaa..aaaaaaaabaabaaaabbaaa.",
"...aaaaa..aaaaaaabbaabaaabbaaaa.",
"#...aaaa..aabbbbbbaaabbbbbaaaaa.",
"##....aa..aaabbbbaaaabbbaaaaaaa.",
"####...a..aaaaaaaaaaaaaaaaaaaaa.",
"#####.....aaaaaaaaaaaaaaaaaaaaa.",
"######....aaaaaaaaaaaaaaaaaaaaa.",
"########........................",
"#########.......................",
"################################"};
