/* XPM */
static const char *pegged[]={
"16 16 196 2",
".V c #000004",
"#e c #00000b",
"#f c #000100",
"#x c #000200",
"#9 c #010000",
"#7 c #010002",
"#5 c #010004",
"ac c #030000",
"aM c #030102",
".W c #030408",
"#X c #040000",
"#D c #040004",
"aL c #040205",
"#R c #050005",
"ai c #050402",
".U c #05060b",
".6 c #06070c",
"#I c #070105",
"#1 c #070400",
"aB c #070506",
"#6 c #070508",
"as c #070604",
".7 c #08090e",
"#W c #090307",
"#l c #0b0d00",
"#g c #0c0d05",
"ah c #0d0b0e",
"#8 c #0d0c0a",
"ar c #0e0c0d",
"az c #0e0c0f",
"aA c #0f0d0e",
"ay c #110f14",
"#J c #1e181a",
"#w c #727469",
"af c #747277",
"#V c #787276",
"aC c #7b7a78",
"aq c #7c7a7d",
"ao c #7c7a7f",
"aO c #7d7c7a",
"#H c #807a7e",
"at c #807f7d",
"ad c #817e79",
"#k c #828479",
"#S c #847d84",
"aK c #848285",
"ap c #848287",
"aJ c #85827d",
"#2 c #87847f",
"ag c #8a888d",
"aN c #8b8a88",
"#4 c #8d8b90",
"ae c #908e93",
"#U c #999397",
".S c #b9babf",
"#u c #b9bbb0",
"#T c #beb8bc",
".2 c #c0c2b7",
"aY c #c1c0be",
"#0 c #c3c0bb",
"#j c #c3c5ba",
"a8 c #c4c0bf",
"#K c #c5bfc1",
"#G c #c6c0c4",
"aa c #c6c3be",
".H c #c7c8b8",
".9 c #c7c8cc",
"aH c #c8c5c0",
".h c #c9c0c5",
"#Z c #cac7c2",
"aX c #cac8c9",
".u c #cacbbb",
"an c #cbc8c3",
"a6 c #ccc8c7",
"a2 c #ccc9c4",
".A c #cccdbb",
"#m c #cccec1",
"aI c #cdcac5",
"ax c #cecbc6",
"aE c #cecdc8",
"aQ c #cecdc9",
".Q c #cecfc7",
".O c #ced0c5",
"#n c #cfced3",
".s c #cfd0c0",
".4 c #cfd0c8",
"#Q c #d0c9d0",
".K c #d0d1bf",
".q c #d1cac4",
"aR c #d1d0cb",
"#t c #d1d2ca",
"#. c #d1d2d4",
"#L c #d2cfc8",
"#d c #d2d2dc",
"#i c #d2d3cb",
"#E c #d3ccd3",
".B c #d4d0c7",
".X c #d4d5d9",
".f c #d5ccd1",
".m c #d5d1c8",
"aj c #d5d4cf",
".w c #d5d6c6",
".Z c #d5d6d8",
".0 c #d5d7c9",
".D c #d6cfc7",
"b. c #d6d2cf",
"aw c #d6d3ce",
".G c #d6d7c7",
"#s c #d6d7cf",
"a3 c #d7d4cf",
"#C c #d7d6db",
".y c #d7d8c6",
"Qt c #d8cad7",
"aS c #d8d5d0",
"#N c #d8d8d8",
"aT c #d9d6d1",
"#p c #d9d9e3",
"ab c #dad7d2",
"au c #dad9d4",
"#v c #dadcd1",
".d c #dbd2d7",
".I c #dbdccc",
".a c #dcccd9",
".j c #dcd3d6",
".o c #dcd5cd",
"#b c #dddce1",
"#r c #dddde9",
".F c #ded7d1",
"aW c #dedcdf",
".5 c #dedfe4",
"bb c #e0ddd8",
"#B c #e0e0e0",
".c c #e1d1de",
"aV c #e1ded9",
".N c #e1e3d5",
"#z c #e2dfd8",
".8 c #e4e5ea",
"a# c #e6e5e0",
"av c #e8e5e0",
"am c #e9e6e1",
"ak c #ebeae5",
"aG c #ece9e4",
"#A c #ececec",
".1 c #eff1e3",
"#o c #f0eff4",
".Y c #f2f3f5",
"#M c #f3f0e9",
".C c #f4f0e7",
"a5 c #f4f0ef",
"aU c #f4f1ec",
"a. c #f4f3ee",
"#q c #f4f4fe",
"#3 c #f6f4f9",
"aF c #f6f5f0",
".x c #f7f8e6",
".J c #f8f9e7",
"#y c #f8faed",
".3 c #f9fbf0",
"aZ c #faf9f7",
"#a c #faf9fe",
".v c #fafbeb",
"#h c #fafbf3",
".k c #fbf2f5",
".e c #fbf2f7",
"a1 c #fbf8f3",
".z c #fbfcea",
".R c #fbfcff",
"al c #fcf9f4",
".r c #fcfded",
"## c #fcfdff",
".E c #fdf6ee",
"ba c #fefbf6",
"aP c #fefdf9",
"#c c #fefeff",
".T c #feffff",
".# c #fff4ff",
".i c #fff9fe",
".b c #fff9ff",
".n c #fffaf2",
"a4 c #fffcf7",
".g c #fffcff",
"b# c #fffdf8",
"#F c #fffdff",
".p c #fffef8",
"a9 c #fffefb",
"a7 c #fffefd",
"#P c #fffeff",
".L c #ffffef",
".t c #fffff1",
".M c #fffff3",
".l c #fffff6",
".P c #fffff8",
"#Y c #fffffa",
"a0 c #fffffb",
"aD c #fffffd",
"#O c #ffffff",
"Qt.#.a.b.c.#.d.e.f.g.h.i.j.k.j.g",
".l.m.n.o.p.q.r.s.t.u.v.w.x.y.z.A",
".B.C.D.E.F.p.G.t.H.t.I.v.A.J.K.L",
".M.N.l.O.P.Q.R.S.T.U.V.W.W.X.Y.Z",
".0.1.2.3.4.P.5.6.7.8.9.T.9.V#.##",
"#a#b#c#d#c#e#f#g#h#i.l#j.l#k#l#m",
"#n#o#p#q#r#e#s#f#t.P#u.l#v#w#x#y",
".P#z#A#B.V#C.g#D.g#E#F#G#H#I#J#K",
"#L#M#N#O.V#P#Q#R#S.g#T#U#V#W#X#F",
"#Y#Z#Y#0#1#2#3#4#5#5#6#7#8#9a.a#",
"aa#Yab#Yacadaeafag#4#7ah#9aiajak",
"al#Zaman#Yacaoapaq#7ar#9asat#Yau",
"av#Yaw#Yax#1#5ayaz#7aAaBaCaDaEaF",
"aGaH#YaIacaJaKaL#9aMaNaOaPaQ#YaR",
"aS#YaTaUaValaW#FaX#PaYaZaQa0aRa.",
"a1a2#Ya3a4aSa5a6a7a8a9b.b#aSbabb"};
