/* XPM */
static const char *unpegged[]={
"16 16 162 2",
"#N c #010000",
"#e c #010002",
".K c #010200",
"#b c #020003",
".Z c #020300",
"#y c #030000",
"#r c #030104",
"#K c #040000",
"#1 c #040100",
"#L c #050000",
"#O c #060300",
"#I c #070000",
"#G c #070400",
"#M c #070604",
"#X c #080500",
"#J c #090000",
".4 c #090a00",
"#W c #0b0803",
"#9 c #0d0a03",
".5 c #131404",
"#6 c #15120b",
".L c #151606",
"#7 c #19160f",
"#2 c #282520",
"#w c #7c7b79",
"#s c #7e756c",
"#u c #7e7975",
"#E c #7f7c75",
"#B c #807d76",
"#V c #807d78",
"#S c #85827b",
"#n c #868487",
"#v c #87827e",
"#Y c #87847f",
"#x c #888785",
"#t c #898077",
"#R c #8f8c85",
"#Q c #928f88",
"#0 c #96938e",
"#p c #9c9a9d",
"#8 c #b7b4ad",
".R c #babbab",
"ay c #bcbaae",
"ah c #bdbab1",
"ar c #bfbcb3",
"af c #c0bdb4",
"ad c #c0bdb6",
".6 c #c1c2b2",
".A c #c3bdb1",
"#P c #c3c0b9",
"#j c #c4c3cb",
"am c #c6c3ba",
"#4 c #c6c3bc",
".P c #c6c7b7",
".w c #c7c1b5",
"aC c #c7c5b9",
".Q c #c8c9b9",
".x c #c9c3b7",
".r c #cac4b8",
"#C c #cac7c0",
"## c #cac9d1",
".1 c #cacbbb",
"aq c #cbc8bf",
".Y c #cbccbe",
"aa c #ccc9c2",
".U c #cccbb9",
".l c #cdc7bb",
"#H c #cdcac3",
".H c #cdcbbc",
".N c #cdcebe",
"ai c #cecbc2",
".V c #ceccbd",
"aE c #ceccc0",
".9 c #ceccd1",
".T c #cecdbb",
"ap c #cfccc3",
"ab c #cfccc5",
"ax c #cfcdc1",
".J c #cfd0c2",
".h c #d0c8bd",
".p c #d0cabe",
"au c #d0cdc4",
".W c #d0cebf",
".d c #d1c9be",
".n c #d1cbbf",
"#T c #d1cec7",
"aB c #d1cfc3",
".E c #d1d0be",
"#a c #d1d0d8",
".O c #d1d2c2",
".D c #d2ccc0",
"av c #d2cfc6",
"ac c #d2cfc8",
".v c #d3cbc0",
"ao c #d3d0c7",
"#U c #d3d0c9",
".f c #d4ccc1",
"aj c #d4d1c8",
"#D c #d4d1ca",
"aw c #d4d2c6",
"#l c #d4d2d5",
".M c #d4d5c5",
".e c #d5cdc2",
".m c #d5cfc3",
".8 c #d5cfd1",
"az c #d5d3c7",
"#f c #d5d3d6",
".s c #d6cec3",
".B c #d6d0c4",
"a. c #d6d3cc",
".j c #d7d1c5",
"#g c #d7d1d3",
"at c #d7d4cb",
".G c #d7d5c6",
".X c #d7d8ca",
"al c #d8d5cc",
"aD c #d8d6ca",
"Qt c #d9ccd5",
".u c #d9d1c6",
"#A c #d9d6cf",
"#. c #d9d7dc",
"#k c #d9d8e0",
".3 c #d9daca",
".b c #dacad4",
".i c #dad2c7",
"#i c #dad8dd",
".c c #dbcbd5",
".q c #dbd5c9",
"#h c #dbd5d7",
"ak c #dbd8cf",
"#3 c #dbd8d3",
".F c #dbdac8",
".a c #dccbd3",
".# c #dccbd5",
"#z c #dcd9d2",
"aF c #dcdace",
".2 c #dcddcd",
".7 c #ddd7d9",
".I c #ddded0",
".k c #ded8cc",
"as c #dedbd2",
"aA c #dedcd0",
"#c c #dedcdf",
".t c #e0d8cd",
"an c #e0ddd4",
".g c #e1d9ce",
".C c #e2dcd0",
".o c #e3ddd1",
"#5 c #e3e0d9",
"#Z c #e3e0db",
".z c #e5dfd3",
"ae c #e7e4dd",
"#q c #e9e7ea",
"#F c #ebe8e1",
"#m c #edebee",
".y c #eee8dc",
"ag c #f0ede4",
"a# c #f0ede6",
".S c #f0f1e1",
"#o c #f3f1f4",
".0 c #fdfeee",
"#d c #fffeff",
"QtQt.#.#.a.a.b.b.b.b.b.b.b.b.c.c",
".d.e.f.g.h.i.j.j.k.l.m.n.o.p.q.r",
".s.t.u.f.s.v.q.w.x.y.z.A.B.C.k.D",
".E.F.G.H.I.J.K.L.M.N.M.O.P.Q.R.S",
".T.U.V.W.X.Y.Z.0.K.1.2.N.3.4.5.6",
".7.8.9#.###a#b#c#d#e#e#b#e#d#e#f",
"#g#h.9#i#j#k#e#l#m#n#d#o#p#q#r#f",
"#s#t#u#v#w#x#y#z#A#B#C#D#E#F#G#H",
"#I#J#K#L#M#N#O#P#Q#y#R#S#y#T#y#A",
"#U#U#U#U#U#U#O#V#y#W#y#y#X#Y#y#Z",
"#U#U#U#U#U#U#y#0#y#1#2#y#y#y#y#3",
"#U#U#U#U#U#U#y#y#y#4#4#5#C#6#7#8",
"#U#U#U#U#U#U#9#ya.a#aaa.abacadae",
"#U#U#U#U#U#Uafagahaiajakalamanao",
"#U#U#U#U#U#Uajapagaqalarasatauav",
"#U#U#U#U#U#UawaxayazaAaBaCaDaEaF"};
