/* XPM */
static char *b3dicon[]={
"32 32 4 1",
". c None",
"# c #000000",
"a c #00c0c0",
"b c #800080",
"................................",
"########################........",
"###aaaaaaaaaaaaaaaaaaaa###......",
"#a###aaaaaaaaaaaaaaaaaaaa##.....",
"#aaa##aaaaaaaaaaaaaaaaaaaa###...",
"#aaaa###aaaaaaaaaaaaaaaaaaaa###.",
"#aaaaaa##aaaaaaaaaaaaaaaaaaaaa##",
"#aaaaaaa########################",
"#aaaaaaaa#aaaaaaaaaaaaaaaaaaaaa#",
"#aaaaaaaa#aaaaaaaaaaaaaaaaaaaaa#",
"#aaaaaaaa#aaaaaaaaaaaaaaaaaaaaa#",
"#aaaaaaaa#aaaaaaaaaaaaaaaaaaaaa#",
"#aaaaaaaa#aaabbbbaaaabbbaaaaaaa#",
"#aaaaaaaa#aabbaabbaaababbbaaaaa#",
"#aaaaaaaa#aaaaaaabbaabaaabbaaaa#",
"#aaaaaaaa#aaaaaaaabaabaaaabbaaa#",
"#aaaaaaaa#aaaaaaaabaabaaaaabaaa#",
"#aaaaaaaa#aaaaaaabbaabaaaaabbaa#",
"#aaaaaaaa#aaaabbbbaaabaaaaaabaa#",
"#aaaaaaaa#aaaabbbbaaabaaaaaabaa#",
"#aaaaaaaa#aaaaaaabbaabaaaaabbaa#",
"#aaaaaaaa#aaaaaaaabaabaaaaabaaa#",
"#aaaaaaaa#aaaaaaaabaabaaaabbaaa#",
"##aaaaaaa#aaaaaaabbaabaaabbaaaa#",
".##aaaaaa#aabbaabbaaababbbaaaaa#",
"..###aaaa#aaabbbbaaaabbbaaaaaaa#",
"....##aaa#aaaaaaaaaaaaaaaaaaaaa#",
".....###a#aaaaaaaaaaaaaaaaaaaaa#",
".......###aaaaaaaaaaaaaaaaaaaaa#",
"........########################",
"................................",
"................................"};
