/* XPM */
static char *nopeg[]={
"16 16 120 2",
".R c None",
".K c #808080",
"#f c #a0a0a0",
"#u c #b7b4ad",
".Q c #babbab",
"#U c #bcbaae",
"#D c #bdbab1",
"#N c #bfbcb3",
"#C c #c0bdb4",
"#A c #c0bdb6",
".1 c #c1c2b2",
".A c #c3bdb1",
"#n c #c3c0b9",
"#b c #c4c3cb",
"#I c #c6c3ba",
"#s c #c6c3bc",
".O c #c6c7b7",
".w c #c7c1b5",
"#Y c #c7c5b9",
".P c #c8c9b9",
".x c #c9c3b7",
".r c #cac4b8",
"#j c #cac7c0",
".6 c #cac9d1",
".Y c #cacbbb",
"#M c #cbc8bf",
".X c #cbccbe",
"#x c #ccc9c2",
".T c #cccbb9",
".l c #cdc7bb",
"#m c #cdcac3",
".H c #cdcbbc",
".M c #cdcebe",
"#E c #cecbc2",
".U c #ceccbd",
"#0 c #ceccc0",
".4 c #ceccd1",
".S c #cecdbb",
"#L c #cfccc3",
"#y c #cfccc5",
"#T c #cfcdc1",
".J c #cfd0c2",
".h c #d0c8bd",
".p c #d0cabe",
"#Q c #d0cdc4",
".V c #d0cebf",
".d c #d1c9be",
".n c #d1cbbf",
"#o c #d1cec7",
"#X c #d1cfc3",
".E c #d1d0be",
".7 c #d1d0d8",
".N c #d1d2c2",
".D c #d2ccc0",
"#R c #d2cfc6",
"#z c #d2cfc8",
".v c #d3cbc0",
"#K c #d3d0c7",
"#p c #d3d0c9",
".f c #d4ccc1",
"#F c #d4d1c8",
"#k c #d4d1ca",
"#S c #d4d2c6",
"#d c #d4d2d5",
".L c #d4d5c5",
".e c #d5cdc2",
".m c #d5cfc3",
".3 c #d5cfd1",
"#V c #d5d3c7",
".9 c #d5d3d6",
".s c #d6cec3",
".B c #d6d0c4",
"#v c #d6d3cc",
".j c #d7d1c5",
"#. c #d7d1d3",
"#P c #d7d4cb",
".G c #d7d5c6",
".W c #d7d8ca",
"#H c #d8d5cc",
"#Z c #d8d6ca",
"Qt c #d9ccd5",
".u c #d9d1c6",
"#i c #d9d6cf",
".5 c #d9d7dc",
"#c c #d9d8e0",
".0 c #d9daca",
".b c #dacad4",
".i c #dad2c7",
"#a c #dad8dd",
".c c #dbcbd5",
".q c #dbd5c9",
"## c #dbd5d7",
"#G c #dbd8cf",
"#r c #dbd8d3",
".F c #dbdac8",
".a c #dccbd3",
".# c #dccbd5",
"#h c #dcd9d2",
"#1 c #dcdace",
".Z c #dcddcd",
".2 c #ddd7d9",
".I c #ddded0",
".k c #ded8cc",
"#O c #dedbd2",
"#W c #dedcd0",
".8 c #dedcdf",
".t c #e0d8cd",
"#J c #e0ddd4",
".g c #e1d9ce",
".C c #e2dcd0",
".o c #e3ddd1",
"#t c #e3e0d9",
"#q c #e3e0db",
".z c #e5dfd3",
"#B c #e7e4dd",
"#g c #e9e7ea",
"#l c #ebe8e1",
"#e c #edebee",
".y c #eee8dc",
"#w c #f0ede6",
"QtQt.#.#.a.a.b.b.b.b.b.b.b.b.c.c",
".d.e.f.g.h.i.j.j.k.l.m.n.o.p.q.r",
".s.t.u.f.s.v.q.w.x.y.z.A.B.C.k.D",
".E.F.G.H.I.J.K.K.L.M.L.N.O.P.Q.R",
".S.T.U.V.W.X.K.R.K.Y.Z.M.0.K.K.1",
".2.3.4.5.6.7.K.8.R.K.K.K.K.R.K.9",
"#.##.4#a#b#c.K#d#e#f.R.R#f#g.K.9",
"#f#f#f#f#f#f.K#h#i#f#j#k#f#l.K#m",
".K.K.K.K.K.K.K#n#f.K#f#f.K#o.K#i",
"#p#p#p#p#p#p.K#f.K.K.K.K.K#f.K#q",
"#p#p#p#p#p#p.K#f.K.K.K.K.K.K.K#r",
"#p#p#p#p#p#p.K.K.K#s#s#t#j.K.K#u",
"#p#p#p#p#p#p.K.K#v#w#x#v#y#z#A#B",
"#p#p#p#p#p#p#C.R#D#E#F#G#H#I#J#K",
"#p#p#p#p#p#p#F#L.R#M#H#N#O#P#Q#R",
"#p#p#p#p#p#p#S#T#U#V#W#X#Y#Z#0#1"};
